<svg width="69" height="61" viewBox="0 0 69 61" fill="none" xmlns="http://www.w3.org/2000/svg">
<path id="Vector" d="M5.428 26.6875L14.0377 18.1246C14.3954 17.7688 14.5871 17.3316 14.6127 16.8131C14.6382 16.2946 14.4466 15.8321 14.0377 15.4254C13.6288 15.0187 13.1764 14.8154 12.6807 14.8154C12.1849 14.8154 11.7326 15.0187 11.3237 15.4254L2.16967 24.5296C1.54867 25.1473 1.23817 25.8666 1.23817 26.6875C1.23817 27.5085 1.54867 28.2278 2.16967 28.8454L11.3237 37.9496C11.6814 38.3055 12.121 38.4961 12.6423 38.5215C13.1637 38.5469 13.6288 38.3563 14.0377 37.9496C14.4466 37.543 14.651 37.0931 14.651 36.6C14.651 36.1069 14.4466 35.6571 14.0377 35.2504L5.428 26.6875ZM63.5758 26.6875L54.9662 35.2504C54.6058 35.6062 54.4142 36.0434 54.3912 36.5619C54.3682 37.0804 54.5598 37.543 54.9662 37.9496C55.3725 38.3563 55.8236 38.5596 56.3193 38.5596C56.8151 38.5596 57.2674 38.3563 57.6763 37.9496L66.8342 28.8454C67.4526 28.2278 67.7618 27.5085 67.7618 26.6875C67.7618 25.8666 67.4526 25.1485 66.8342 24.5335L57.6763 15.4254C57.3186 15.0696 56.879 14.8789 56.3577 14.8535C55.8363 14.8281 55.3725 15.0187 54.9662 15.4254C54.5598 15.8321 54.3554 16.2819 54.3528 16.775C54.3503 17.2681 54.5547 17.718 54.9662 18.1246L63.5758 26.6875ZM0 10.5607V6.15722C0 4.40093 0.591611 2.93439 1.77483 1.75759C2.95806 0.580803 4.43005 -0.00505053 6.19083 3.27957e-05H62.8092C64.5725 3.27957e-05 66.0445 0.587157 67.2252 1.76141C68.4058 2.93566 68.9974 4.40093 69 6.15722V10.5607C69 11.1046 68.8173 11.5583 68.4518 11.9217C68.0864 12.2852 67.6302 12.4669 67.0833 12.4669C66.5364 12.4669 66.0803 12.2852 65.7148 11.9217C65.3494 11.5583 65.1667 11.1033 65.1667 10.5568V6.15722C65.1667 5.47351 64.9456 4.9118 64.5035 4.47209C64.0614 4.03238 63.4966 3.81253 62.8092 3.81253H6.19083C5.50339 3.81253 4.93861 4.03238 4.4965 4.47209C4.05439 4.9118 3.83333 5.47478 3.83333 6.16103V10.5568C3.83333 11.1008 3.65061 11.5544 3.28517 11.9179C2.91972 12.2814 2.46356 12.4631 1.91667 12.4631C1.36978 12.4631 0.913611 12.2814 0.548166 11.9179C0.182722 11.5544 0 11.1046 0 10.5607ZM26.0973 61C25.208 61 24.4694 60.7077 23.8817 60.1231C23.2939 59.5385 23 58.804 23 57.9195V53.375H6.19467C4.42878 53.375 2.9555 52.7879 1.77483 51.6136C0.594167 50.4394 0.00255556 48.9728 0 47.214V42.8373C0 42.2959 0.182722 41.8473 0.548166 41.4914C0.916166 41.1356 1.37233 40.9577 1.91667 40.9577C2.461 40.9577 2.91717 41.1394 3.28517 41.5029C3.65317 41.8663 3.83589 42.3188 3.83333 42.8601V47.214C3.83333 47.9003 4.05439 48.4632 4.4965 48.9029C4.93861 49.3426 5.50467 49.5625 6.19467 49.5625H62.8092C63.4966 49.5625 64.0614 49.3426 64.5035 48.9029C64.9456 48.4632 65.1667 47.9003 65.1667 47.214V42.8373C65.1667 42.2959 65.3494 41.8473 65.7148 41.4914C66.0803 41.1356 66.5364 40.9577 67.0833 40.9577C67.6302 40.9577 68.0864 41.1394 68.4518 41.5029C68.8173 41.8663 69 42.3188 69 42.8601V47.214C69 48.9703 68.4084 50.4356 67.2252 51.6098C66.0419 52.7841 64.5699 53.3725 62.8092 53.375H46V57.9195C46 58.8065 45.7061 59.5411 45.1183 60.1231C44.5306 60.7052 43.792 60.9975 42.9027 61H26.0973Z" fill="white"/>
</svg>
