<svg width="23" height="22" viewBox="0 0 23 22" fill="none" xmlns="http://www.w3.org/2000/svg">
<g id="Group">
<path id="Vector" d="M1.47998 11C1.47998 12.3132 1.73864 13.6136 2.24119 14.8268C2.74373 16.0401 3.48033 17.1425 4.40891 18.0711C5.3375 18.9997 6.43989 19.7363 7.65315 20.2388C8.8664 20.7413 10.1668 21 11.48 21C12.7932 21 14.0936 20.7413 15.3068 20.2388C16.5201 19.7363 17.6225 18.9997 18.551 18.0711C19.4796 17.1425 20.2162 16.0401 20.7188 14.8268C21.2213 13.6136 21.48 12.3132 21.48 11C21.48 8.34784 20.4264 5.8043 18.551 3.92893C16.6757 2.05357 14.1321 1 11.48 1C8.82782 1 6.28428 2.05357 4.40891 3.92893C2.53355 5.8043 1.47998 8.34784 1.47998 11Z" stroke="#99FF99" stroke-width="2" stroke-linecap="round" stroke-linejoin="round"/>
<path id="Vector_2" d="M11.48 5.44446V11L14.8133 14.3333" stroke="#99FF99" stroke-width="2" stroke-linecap="round" stroke-linejoin="round"/>
</g>
</svg>
