<svg width="1920" height="1080" viewBox="0 0 1920 1080" fill="none" xmlns="http://www.w3.org/2000/svg">
  <rect width="1920" height="1080" fill="#1a1a1a"/>
  <path d="M0 0h1920v1080H0z" fill="#1a1a1a"/>
  <!-- Grid Pattern -->
  <path stroke="#333" stroke-width="0.5" d="M0 108h1920M0 216h1920M0 324h1920M0 432h1920M0 540h1920M0 648h1920M0 756h1920M0 864h1920M0 972h1920"/>
  <path stroke="#333" stroke-width="0.5" d="M192 0v1080M384 0v1080M576 0v1080M768 0v1080M960 0v1080M1152 0v1080M1344 0v1080M1536 0v1080M1728 0v1080"/>
  <!-- Decorative Elements -->
  <circle cx="960" cy="540" r="200" stroke="#99ff99" stroke-width="2" opacity="0.1"/>
  <circle cx="960" cy="540" r="300" stroke="#99ff99" stroke-width="2" opacity="0.05"/>
  <circle cx="960" cy="540" r="400" stroke="#99ff99" stroke-width="2" opacity="0.025"/>
</svg> 