<svg width="60" height="60" viewBox="0 0 60 60" fill="none" xmlns="http://www.w3.org/2000/svg">
<g id="Group">
<path id="Vector" d="M6.74617 42.6875C6.74617 44.975 7.65487 47.1688 9.27238 48.7863C10.8899 50.4038 13.0837 51.3125 15.3712 51.3125C15.3712 53.2187 16.1284 55.0469 17.4763 56.3948C18.8243 57.7427 20.6524 58.5 22.5587 58.5C24.4649 58.5 26.2931 57.7427 27.641 56.3948C28.9889 55.0469 29.7462 53.2187 29.7462 51.3125C29.7462 53.2187 30.5034 55.0469 31.8513 56.3948C33.1993 57.7427 35.0274 58.5 36.9337 58.5C38.8399 58.5 40.6681 57.7427 42.016 56.3948C43.3639 55.0469 44.1212 53.2187 44.1212 51.3125C45.6502 51.3126 47.1519 50.9063 48.4722 50.135C49.7925 49.3638 50.8841 48.2554 51.635 46.9234C52.386 45.5915 52.7694 44.0838 52.7459 42.5549C52.7224 41.026 52.2928 39.5309 51.5013 38.2226C53.4691 37.8424 55.2432 36.7889 56.5189 35.2432C57.7946 33.6974 58.4923 31.7557 58.4923 29.7514C58.4923 27.7472 57.7946 25.8055 56.5189 24.2597C55.2432 22.7139 53.4691 21.6605 51.5013 21.2802C52.2936 19.9719 52.7237 18.4765 52.7476 16.9472C52.7715 15.4178 52.3882 13.9097 51.6372 12.5773C50.8861 11.2449 49.7943 10.1361 48.4735 9.36475C47.1528 8.59336 45.6507 8.18706 44.1212 8.1875C44.1212 6.28126 43.3639 4.45309 42.016 3.10517C40.6681 1.75725 38.8399 1 36.9337 1C35.0274 1 33.1993 1.75725 31.8513 3.10517C30.5034 4.45309 29.7462 6.28126 29.7462 8.1875C29.7462 6.28126 28.9889 4.45309 27.641 3.10517C26.2931 1.75725 24.4649 1 22.5587 1C20.6524 1 18.8243 1.75725 17.4763 3.10517C16.1284 4.45309 15.3712 6.28126 15.3712 8.1875C13.8421 8.18737 12.3405 8.59374 11.0201 9.36498C9.69982 10.1362 8.60826 11.2446 7.8573 12.5766C7.10633 13.9085 6.72296 15.4162 6.74646 16.9451C6.76997 18.474 7.1995 19.9691 7.99105 21.2774C6.02322 21.6576 4.24916 22.7111 2.97346 24.2568C1.69775 25.8026 1 27.7443 1 29.7486C1 31.7528 1.69775 33.6945 2.97346 35.2403C4.24916 36.7861 6.02322 37.8395 7.99105 38.2198C7.17595 39.5674 6.74543 41.1125 6.74617 42.6875Z" stroke="white" stroke-width="2" stroke-linecap="round" stroke-linejoin="round"/>
<path id="Vector_2" d="M16.8086 36.9375L22.1043 21.0502C22.2373 20.6538 22.4914 20.3091 22.8309 20.0649C23.1703 19.8207 23.5779 19.6893 23.9961 19.6893C24.4143 19.6893 24.8219 19.8207 25.1613 20.0649C25.5008 20.3091 25.7549 20.6538 25.8878 21.0502L31.1836 36.9375M39.8086 19.6875V36.9375M19.6836 31.1875H28.3086" stroke="white" stroke-width="2" stroke-linecap="round" stroke-linejoin="round"/>
</g>
</svg>
