<svg width="23" height="28" viewBox="0 0 23 28" fill="none" xmlns="http://www.w3.org/2000/svg">
<path id="Vector" d="M7.0736 24H3.2C2.77565 24 2.36869 23.8314 2.06863 23.5314C1.76857 23.2313 1.6 22.8243 1.6 22.4V3.2C1.6 2.77565 1.76857 2.36869 2.06863 2.06863C2.36869 1.76857 2.77565 1.6 3.2 1.6H12.8C13.2243 1.6 13.6313 1.76857 13.9314 2.06863C14.2314 2.36869 14.4 2.77565 14.4 3.2V11.2352C14.9323 11.1875 15.4677 11.1875 16 11.2352V3.2C16 2.35131 15.6629 1.53737 15.0627 0.937258C14.4626 0.337142 13.6487 0 12.8 0H3.2C2.35131 0 1.53737 0.337142 0.937258 0.937258C0.337142 1.53737 0 2.35131 0 3.2V22.4C0 23.2487 0.337142 24.0626 0.937258 24.6627C1.53737 25.2629 2.35131 25.6 3.2 25.6H6.5872L7.0736 24ZM15.2 27.2C16.7795 27.1995 18.3151 26.6796 19.57 25.7204C20.8249 24.7613 21.7296 23.416 22.1447 21.892C22.5598 20.368 22.4622 18.7498 21.8669 17.2867C21.2717 15.8237 20.2119 14.5969 18.8508 13.7955C17.4896 12.9941 15.9028 12.6626 14.3346 12.8519C12.7665 13.0413 11.3042 13.741 10.1729 14.8434C9.04165 15.9457 8.30428 17.3895 8.0744 18.9522C7.84453 20.5149 8.13491 22.1098 8.9008 23.4912L8.0304 26.3536C7.99664 26.4669 7.99413 26.5873 8.02315 26.7019C8.05216 26.8165 8.11162 26.9212 8.19523 27.0048C8.27884 27.0884 8.38349 27.1478 8.49812 27.1769C8.61274 27.2059 8.73308 27.2034 8.8464 27.1696L11.7104 26.2992C12.7784 26.8904 13.9792 27.2004 15.2 27.2ZM11.2 18.4C11.2 18.1878 11.2843 17.9843 11.4343 17.8343C11.5843 17.6843 11.7878 17.6 12 17.6H18.4C18.6122 17.6 18.8157 17.6843 18.9657 17.8343C19.1157 17.9843 19.2 18.1878 19.2 18.4C19.2 18.6122 19.1157 18.8157 18.9657 18.9657C18.8157 19.1157 18.6122 19.2 18.4 19.2H12C11.7878 19.2 11.5843 19.1157 11.4343 18.9657C11.2843 18.8157 11.2 18.6122 11.2 18.4ZM12 22.4C11.7878 22.4 11.5843 22.3157 11.4343 22.1657C11.2843 22.0157 11.2 21.8122 11.2 21.6C11.2 21.3878 11.2843 21.1843 11.4343 21.0343C11.5843 20.8843 11.7878 20.8 12 20.8H15.2C15.4122 20.8 15.6157 20.8843 15.7657 21.0343C15.9157 21.1843 16 21.3878 16 21.6C16 21.8122 15.9157 22.0157 15.7657 22.1657C15.6157 22.3157 15.4122 22.4 15.2 22.4H12Z" fill="#99FF99"/>
</svg>
