<svg width="16" height="22" viewBox="0 0 16 22" fill="none" xmlns="http://www.w3.org/2000/svg">
<g id="Geo">
<path id="Vector" fill-rule="evenodd" clip-rule="evenodd" d="M7.455 22H8.556L9.55 20.758C10.856 19.126 12.431 17.033 13.687 14.867C14.904 12.767 16 10.305 16 8C16 3.395 12.605 0 8 0C3.395 0 0 3.395 0 8C0 10.293 1.063 12.755 2.271 14.867C3.516 17.044 5.091 19.143 6.448 20.783L7.455 22ZM2 8C2 10.95 4.386 14.846 6.712 17.9C7.122 18.44 7.542 18.947 7.937 19.424L8 19.5C8.402 18.9967 8.81767 18.4597 9.247 17.889C11.553 14.823 14 10.949 14 8C14 4.5 11.5 2 8 2C4.5 2 2 4.5 2 8Z" fill="#99FF99"/>
<path id="Vector_2" d="M8 9C8.55228 9 9 8.55228 9 8C9 7.44772 8.55228 7 8 7C7.44772 7 7 7.44772 7 8C7 8.55228 7.44772 9 8 9Z" fill="#99FF99"/>
<path id="Vector_3" fill-rule="evenodd" clip-rule="evenodd" d="M8 10C8.53043 10 9.03914 9.78929 9.41421 9.41421C9.78929 9.03914 10 8.53043 10 8C10 7.46957 9.78929 6.96086 9.41421 6.58579C9.03914 6.21071 8.53043 6 8 6C7.46957 6 6.96086 6.21071 6.58579 6.58579C6.21071 6.96086 6 7.46957 6 8C6 8.53043 6.21071 9.03914 6.58579 9.41421C6.96086 9.78929 7.46957 10 8 10Z" fill="#99FF99"/>
</g>
</svg>
